<svg width="73" height="112" viewBox="0 0 73 112" fill="none" xmlns="http://www.w3.org/2000/svg">
<path d="M24.1088 96.3636H25.8588V104.614C25.8588 105.36 25.711 105.998 25.4156 106.528C25.1239 107.059 24.7129 107.464 24.1826 107.744C23.6523 108.021 23.0311 108.159 22.319 108.159C21.6637 108.159 21.0747 108.04 20.5519 107.801C20.033 107.562 19.622 107.216 19.319 106.761C19.0197 106.303 18.8701 105.746 18.8701 105.091H20.6144C20.6144 105.413 20.6883 105.691 20.836 105.926C20.9875 106.161 21.194 106.345 21.4553 106.477C21.7205 106.606 22.0235 106.67 22.3644 106.67C22.7356 106.67 23.05 106.593 23.3076 106.438C23.569 106.278 23.7678 106.045 23.9042 105.739C24.0406 105.432 24.1088 105.057 24.1088 104.614V96.3636ZM30.8176 108.193C30.2645 108.193 29.7645 108.091 29.3176 107.886C28.8706 107.678 28.5164 107.377 28.2551 106.983C27.9975 106.589 27.8687 106.106 27.8687 105.534C27.8687 105.042 27.9634 104.636 28.1528 104.318C28.3422 104 28.5979 103.748 28.9198 103.562C29.2418 103.377 29.6017 103.237 29.9994 103.142C30.3971 103.047 30.8024 102.975 31.2153 102.926C31.738 102.866 32.1623 102.816 32.488 102.778C32.8138 102.737 33.0505 102.67 33.1982 102.58C33.346 102.489 33.4198 102.341 33.4198 102.136V102.097C33.4198 101.6 33.2797 101.216 32.9994 100.943C32.7229 100.67 32.31 100.534 31.7607 100.534C31.1888 100.534 30.738 100.661 30.4085 100.915C30.0827 101.165 29.8573 101.443 29.7323 101.75L28.1357 101.386C28.3251 100.856 28.6017 100.428 28.9653 100.102C29.3327 99.7727 29.7551 99.5341 30.2323 99.3864C30.7096 99.2348 31.2115 99.1591 31.738 99.1591C32.0865 99.1591 32.4558 99.2008 32.846 99.2841C33.2399 99.3636 33.6073 99.5114 33.9482 99.7273C34.2929 99.9432 34.5751 100.252 34.7948 100.653C35.0145 101.051 35.1244 101.568 35.1244 102.205V108H33.4653V106.807H33.3971C33.2873 107.027 33.1225 107.242 32.9028 107.455C32.6831 107.667 32.4009 107.843 32.0562 107.983C31.7115 108.123 31.2986 108.193 30.8176 108.193ZM31.1869 106.83C31.6566 106.83 32.0581 106.737 32.3914 106.551C32.7285 106.366 32.9842 106.123 33.1585 105.824C33.3365 105.521 33.4255 105.197 33.4255 104.852V103.727C33.3649 103.788 33.2475 103.845 33.0732 103.898C32.9028 103.947 32.7077 103.991 32.488 104.028C32.2683 104.062 32.0543 104.095 31.846 104.125C31.6376 104.152 31.4634 104.174 31.3232 104.193C30.9937 104.235 30.6926 104.305 30.4198 104.403C30.1509 104.502 29.935 104.644 29.7721 104.83C29.613 105.011 29.5335 105.254 29.5335 105.557C29.5335 105.977 29.6888 106.295 29.9994 106.511C30.31 106.723 30.7058 106.83 31.1869 106.83ZM44.5406 99.2727L41.3758 108H39.5576L36.3872 99.2727H38.211L40.4213 105.989H40.5122L42.7167 99.2727H44.5406ZM48.4269 108.193C47.8739 108.193 47.3739 108.091 46.9269 107.886C46.48 107.678 46.1258 107.377 45.8644 106.983C45.6069 106.589 45.4781 106.106 45.4781 105.534C45.4781 105.042 45.5728 104.636 45.7622 104.318C45.9516 104 46.2072 103.748 46.5292 103.562C46.8512 103.377 47.211 103.237 47.6088 103.142C48.0065 103.047 48.4118 102.975 48.8247 102.926C49.3474 102.866 49.7716 102.816 50.0974 102.778C50.4231 102.737 50.6599 102.67 50.8076 102.58C50.9553 102.489 51.0292 102.341 51.0292 102.136V102.097C51.0292 101.6 50.8891 101.216 50.6088 100.943C50.3322 100.67 49.9194 100.534 49.3701 100.534C48.7981 100.534 48.3474 100.661 48.0178 100.915C47.6921 101.165 47.4667 101.443 47.3417 101.75L45.7451 101.386C45.9345 100.856 46.211 100.428 46.5747 100.102C46.9421 99.7727 47.3644 99.5341 47.8417 99.3864C48.319 99.2348 48.8209 99.1591 49.3474 99.1591C49.6959 99.1591 50.0652 99.2008 50.4553 99.2841C50.8493 99.3636 51.2167 99.5114 51.5576 99.7273C51.9023 99.9432 52.1845 100.252 52.4042 100.653C52.6239 101.051 52.7338 101.568 52.7338 102.205V108H51.0747V106.807H51.0065C50.8966 107.027 50.7319 107.242 50.5122 107.455C50.2925 107.667 50.0103 107.843 49.6656 107.983C49.3209 108.123 48.908 108.193 48.4269 108.193ZM48.7963 106.83C49.266 106.83 49.6675 106.737 50.0008 106.551C50.3379 106.366 50.5936 106.123 50.7678 105.824C50.9459 105.521 51.0349 105.197 51.0349 104.852V103.727C50.9743 103.788 50.8569 103.845 50.6826 103.898C50.5122 103.947 50.3171 103.991 50.0974 104.028C49.8777 104.062 49.6637 104.095 49.4553 104.125C49.247 104.152 49.0728 104.174 48.9326 104.193C48.6031 104.235 48.3019 104.305 48.0292 104.403C47.7603 104.502 47.5444 104.644 47.3815 104.83C47.2224 105.011 47.1428 105.254 47.1428 105.557C47.1428 105.977 47.2981 106.295 47.6088 106.511C47.9194 106.723 48.3152 106.83 48.7963 106.83Z" fill="black"/>
<path d="M26.6379 55.6763C26.6379 55.6763 23.8839 57.2805 28.5931 57.8183C34.2991 58.4753 37.2174 58.383 43.4994 57.186C43.4994 57.186 45.1486 58.23 47.4594 59.1323C33.3631 65.169 15.5611 58.77 26.6356 55.6763H26.6379ZM24.9121 47.8013C24.9121 47.8013 21.8184 50.085 26.5299 50.5643C32.6386 51.1965 37.4401 51.2573 45.7719 49.653C45.7719 49.653 46.9216 50.814 48.7396 51.4553C31.7004 56.4345 12.7149 51.8423 24.9144 47.8013H24.9121ZM39.4314 34.4318C42.8986 38.4278 38.5156 42.0255 38.5156 42.0255C38.5156 42.0255 47.3289 37.4648 43.2856 31.7723C39.5034 26.451 36.5964 23.8163 52.2969 14.7083C52.2969 14.7083 27.6526 20.862 39.4291 34.434L39.4314 34.4318ZM58.0659 61.5128C58.0659 61.5128 60.1066 63.1868 55.8271 64.4895C47.6934 66.9488 21.9714 67.6868 14.8231 64.5818C12.2581 63.468 17.0731 61.911 18.5851 61.5938C20.1669 61.2428 21.0691 61.3148 21.0691 61.3148C18.2094 59.2988 2.60113 65.2635 13.1379 66.9735C41.8839 71.6378 65.5291 64.8765 58.0659 61.5128ZM27.9609 39.6338C27.9609 39.6338 14.8726 42.7388 23.3191 43.8638C26.8944 44.343 34.0089 44.2395 40.6419 43.677C46.0531 43.218 51.4936 42.246 51.4936 42.246C51.4936 42.246 49.5834 43.065 48.1996 44.0168C34.9089 47.5088 9.23638 45.8798 16.6299 42.3068C22.8759 39.294 27.9609 39.6338 27.9609 39.6338ZM51.4329 52.758C64.9329 45.7268 58.6869 38.988 54.3399 39.9038C53.2711 40.113 52.7919 40.3155 52.7919 40.3155C52.7919 40.3155 53.1789 39.6923 53.9416 39.4245C62.5659 36.3893 69.1989 48.3638 51.1629 53.1113C51.1629 53.1 51.3766 52.9245 51.4329 52.7603V52.758ZM43.2879 0C43.2879 0 50.7669 7.47675 36.1869 18.9833C24.5049 28.2173 33.5251 33.48 36.1869 39.492C29.3671 33.3383 24.3631 27.927 27.7156 22.887C32.6476 15.4688 46.3006 11.8823 43.2879 0ZM29.2839 71.7773C42.2461 72.5963 62.1541 71.3093 62.6379 65.1803C62.6379 65.1803 61.7221 67.5 51.9121 69.3495C40.8511 71.4353 27.1981 71.1878 19.1004 69.8535C19.1004 69.8535 20.7654 71.2238 29.2816 71.7773H29.2839Z" fill="black"/>
</svg>
