<svg width="89" height="112" viewBox="0 0 89 112" fill="none" xmlns="http://www.w3.org/2000/svg">
<path d="M6.87012 99.4205C6.80951 98.8826 6.55951 98.4659 6.12012 98.1705C5.68072 97.8712 5.12769 97.7216 4.46103 97.7216C3.98375 97.7216 3.57087 97.7973 3.22239 97.9489C2.87391 98.0966 2.60307 98.3011 2.40989 98.5625C2.2205 98.8201 2.1258 99.1136 2.1258 99.4432C2.1258 99.7197 2.19019 99.9583 2.31898 100.159C2.45156 100.36 2.62391 100.528 2.83603 100.665C3.05194 100.797 3.283 100.909 3.52921 101C3.77542 101.087 4.01216 101.159 4.23944 101.216L5.3758 101.511C5.74701 101.602 6.12769 101.725 6.51784 101.881C6.908 102.036 7.26974 102.241 7.60307 102.494C7.93641 102.748 8.20534 103.062 8.40989 103.438C8.61822 103.812 8.72239 104.261 8.72239 104.784C8.72239 105.443 8.55194 106.028 8.21103 106.54C7.87391 107.051 7.38338 107.455 6.73944 107.75C6.09928 108.045 5.32466 108.193 4.41557 108.193C3.54436 108.193 2.79057 108.055 2.15421 107.778C1.51784 107.502 1.01974 107.11 0.65989 106.602C0.300041 106.091 0.101178 105.485 0.0632991 104.784H1.82466C1.85875 105.205 1.99512 105.555 2.23375 105.835C2.47618 106.112 2.78489 106.318 3.15989 106.455C3.53868 106.587 3.95345 106.653 4.40421 106.653C4.90042 106.653 5.34171 106.576 5.72807 106.42C6.11822 106.261 6.42504 106.042 6.64853 105.761C6.87201 105.477 6.98375 105.146 6.98375 104.767C6.98375 104.422 6.88527 104.14 6.6883 103.92C6.49512 103.701 6.23186 103.519 5.89853 103.375C5.56898 103.231 5.19587 103.104 4.77921 102.994L3.40421 102.619C2.47239 102.366 1.73375 101.992 1.1883 101.5C0.646632 101.008 0.375799 100.356 0.375799 99.5455C0.375799 98.875 0.557617 98.2898 0.921254 97.7898C1.28489 97.2898 1.77731 96.9015 2.39853 96.625C3.01974 96.3447 3.7205 96.2045 4.5008 96.2045C5.28868 96.2045 5.98375 96.3428 6.58603 96.6193C7.19209 96.8958 7.66936 97.2765 8.01785 97.7614C8.36633 98.2424 8.54815 98.7955 8.5633 99.4205H6.87012ZM10.684 111.273V99.2727H12.3431V100.688H12.4852C12.5837 100.506 12.7257 100.295 12.9113 100.057C13.0969 99.8182 13.3545 99.6098 13.684 99.4318C14.0136 99.25 14.4492 99.1591 14.9909 99.1591C15.6954 99.1591 16.3242 99.3371 16.8772 99.6932C17.4303 100.049 17.864 100.562 18.1784 101.233C18.4965 101.903 18.6556 102.71 18.6556 103.653C18.6556 104.597 18.4984 105.405 18.184 106.08C17.8696 106.75 17.4378 107.267 16.8886 107.631C16.3393 107.991 15.7124 108.17 15.0079 108.17C14.4776 108.17 14.0439 108.081 13.7068 107.903C13.3734 107.725 13.1121 107.517 12.9227 107.278C12.7333 107.04 12.5874 106.828 12.4852 106.642H12.3829V111.273H10.684ZM12.3488 103.636C12.3488 104.25 12.4378 104.788 12.6159 105.25C12.7939 105.712 13.0515 106.074 13.3886 106.335C13.7257 106.593 14.1386 106.722 14.6272 106.722C15.1348 106.722 15.559 106.587 15.8999 106.318C16.2409 106.045 16.4984 105.676 16.6727 105.21C16.8507 104.744 16.9397 104.22 16.9397 103.636C16.9397 103.061 16.8526 102.544 16.6784 102.085C16.5079 101.627 16.2503 101.265 15.9056 101C15.5647 100.735 15.1386 100.602 14.6272 100.602C14.1348 100.602 13.7181 100.729 13.3772 100.983C13.0401 101.237 12.7844 101.591 12.6102 102.045C12.4359 102.5 12.3488 103.03 12.3488 103.636ZM20.559 108V99.2727H22.2011V100.659H22.292C22.4511 100.189 22.7314 99.8201 23.1329 99.5511C23.5382 99.2784 23.9965 99.142 24.5079 99.142C24.614 99.142 24.739 99.1458 24.8829 99.1534C25.0306 99.161 25.1462 99.1705 25.2295 99.1818V100.807C25.1613 100.788 25.0401 100.767 24.8659 100.744C24.6916 100.718 24.5174 100.705 24.3431 100.705C23.9416 100.705 23.5837 100.79 23.2693 100.96C22.9587 101.127 22.7124 101.36 22.5306 101.659C22.3488 101.955 22.2579 102.292 22.2579 102.67V108H20.559ZM26.6997 108V99.2727H28.3985V108H26.6997ZM27.5576 97.9261C27.2622 97.9261 27.0084 97.8277 26.7963 97.6307C26.5879 97.4299 26.4838 97.1913 26.4838 96.9148C26.4838 96.6345 26.5879 96.3958 26.7963 96.1989C27.0084 95.9981 27.2622 95.8977 27.5576 95.8977C27.8531 95.8977 28.105 95.9981 28.3133 96.1989C28.5254 96.3958 28.6315 96.6345 28.6315 96.9148C28.6315 97.1913 28.5254 97.4299 28.3133 97.6307C28.105 97.8277 27.8531 97.9261 27.5576 97.9261ZM32.3829 102.818V108H30.684V99.2727H32.3147V100.693H32.4227C32.6234 100.231 32.9378 99.8598 33.3659 99.5795C33.7977 99.2992 34.3412 99.1591 34.9965 99.1591C35.5912 99.1591 36.1121 99.2841 36.559 99.5341C37.006 99.7803 37.3526 100.148 37.5988 100.636C37.845 101.125 37.9681 101.729 37.9681 102.449V108H36.2693V102.653C36.2693 102.021 36.1045 101.527 35.7749 101.17C35.4454 100.811 34.9927 100.631 34.417 100.631C34.0231 100.631 33.6727 100.716 33.3659 100.886C33.0628 101.057 32.8223 101.307 32.6443 101.636C32.47 101.962 32.3829 102.356 32.3829 102.818ZM43.9056 111.455C43.2124 111.455 42.6159 111.364 42.1159 111.182C41.6196 111 41.2143 110.759 40.8999 110.46C40.5856 110.161 40.3507 109.833 40.1954 109.477L41.6556 108.875C41.7579 109.042 41.8943 109.218 42.0647 109.403C42.239 109.593 42.4738 109.754 42.7693 109.886C43.0685 110.019 43.453 110.085 43.9227 110.085C44.5666 110.085 45.0988 109.928 45.5193 109.614C45.9397 109.303 46.1499 108.807 46.1499 108.125V106.409H46.042C45.9397 106.595 45.792 106.801 45.5988 107.028C45.4094 107.256 45.1481 107.453 44.8147 107.619C44.4814 107.786 44.0477 107.869 43.5136 107.869C42.8242 107.869 42.203 107.708 41.6499 107.386C41.1007 107.061 40.6651 106.581 40.3431 105.949C40.0249 105.312 39.8659 104.53 39.8659 103.602C39.8659 102.674 40.0231 101.879 40.3374 101.216C40.6556 100.553 41.0912 100.045 41.6443 99.6932C42.1973 99.3371 42.8242 99.1591 43.5249 99.1591C44.0666 99.1591 44.5041 99.25 44.8374 99.4318C45.1708 99.6098 45.4302 99.8182 45.6159 100.057C45.8053 100.295 45.9511 100.506 46.0534 100.688H46.1784V99.2727H47.8431V108.193C47.8431 108.943 47.6689 109.559 47.3204 110.04C46.9719 110.521 46.5003 110.877 45.9056 111.108C45.3147 111.339 44.6481 111.455 43.9056 111.455ZM43.8886 106.46C44.3772 106.46 44.7901 106.347 45.1272 106.119C45.4681 105.888 45.7257 105.559 45.8999 105.131C46.078 104.699 46.167 104.182 46.167 103.58C46.167 102.992 46.0799 102.475 45.9056 102.028C45.7314 101.581 45.4757 101.233 45.1386 100.983C44.8015 100.729 44.3848 100.602 43.8886 100.602C43.3772 100.602 42.9511 100.735 42.6102 101C42.2693 101.261 42.0117 101.617 41.8374 102.068C41.667 102.519 41.5818 103.023 41.5818 103.58C41.5818 104.152 41.6689 104.653 41.8431 105.085C42.0174 105.517 42.2749 105.854 42.6159 106.097C42.9606 106.339 43.3848 106.46 43.8886 106.46ZM54.4923 108V96.3636H58.7536C59.5794 96.3636 60.2631 96.5 60.8048 96.7727C61.3464 97.0417 61.7517 97.4072 62.0207 97.8693C62.2896 98.3277 62.4241 98.8447 62.4241 99.4205C62.4241 99.9053 62.3351 100.314 62.157 100.648C61.979 100.977 61.7404 101.242 61.4411 101.443C61.1457 101.64 60.8199 101.784 60.4639 101.875V101.989C60.8502 102.008 61.2271 102.133 61.5945 102.364C61.9658 102.591 62.2726 102.915 62.515 103.335C62.7574 103.756 62.8786 104.267 62.8786 104.869C62.8786 105.464 62.7385 105.998 62.4582 106.472C62.1817 106.941 61.7536 107.314 61.1741 107.591C60.5945 107.864 59.854 108 58.9525 108H54.4923ZM56.248 106.494H58.782C59.623 106.494 60.2252 106.331 60.5889 106.006C60.9525 105.68 61.1343 105.273 61.1343 104.784C61.1343 104.417 61.0415 104.08 60.8559 103.773C60.6703 103.466 60.4052 103.222 60.0605 103.04C59.7195 102.858 59.3142 102.767 58.8445 102.767H56.248V106.494ZM56.248 101.398H58.6002C58.9942 101.398 59.3483 101.322 59.6627 101.17C59.9809 101.019 60.2328 100.807 60.4184 100.534C60.6078 100.258 60.7025 99.9318 60.7025 99.5568C60.7025 99.0758 60.5339 98.6723 60.1968 98.3466C59.8597 98.0208 59.3427 97.858 58.6457 97.858H56.248V101.398ZM68.5008 108.176C67.6826 108.176 66.9686 107.989 66.3588 107.614C65.7489 107.239 65.2754 106.714 64.9383 106.04C64.6012 105.366 64.4326 104.578 64.4326 103.676C64.4326 102.771 64.6012 101.979 64.9383 101.301C65.2754 100.623 65.7489 100.097 66.3588 99.7216C66.9686 99.3466 67.6826 99.1591 68.5008 99.1591C69.319 99.1591 70.033 99.3466 70.6428 99.7216C71.2527 100.097 71.7262 100.623 72.0633 101.301C72.4004 101.979 72.569 102.771 72.569 103.676C72.569 104.578 72.4004 105.366 72.0633 106.04C71.7262 106.714 71.2527 107.239 70.6428 107.614C70.033 107.989 69.319 108.176 68.5008 108.176ZM68.5065 106.75C69.0368 106.75 69.4762 106.61 69.8247 106.33C70.1731 106.049 70.4307 105.676 70.5974 105.21C70.7678 104.744 70.8531 104.231 70.8531 103.67C70.8531 103.114 70.7678 102.602 70.5974 102.136C70.4307 101.667 70.1731 101.29 69.8247 101.006C69.4762 100.722 69.0368 100.58 68.5065 100.58C67.9724 100.58 67.5292 100.722 67.1769 101.006C66.8285 101.29 66.569 101.667 66.3985 102.136C66.2319 102.602 66.1485 103.114 66.1485 103.67C66.1485 104.231 66.2319 104.744 66.3985 105.21C66.569 105.676 66.8285 106.049 67.1769 106.33C67.5292 106.61 67.9724 106.75 68.5065 106.75ZM78.1414 108.176C77.3232 108.176 76.6092 107.989 75.9994 107.614C75.3895 107.239 74.916 106.714 74.5789 106.04C74.2418 105.366 74.0732 104.578 74.0732 103.676C74.0732 102.771 74.2418 101.979 74.5789 101.301C74.916 100.623 75.3895 100.097 75.9994 99.7216C76.6092 99.3466 77.3232 99.1591 78.1414 99.1591C78.9596 99.1591 79.6736 99.3466 80.2835 99.7216C80.8933 100.097 81.3668 100.623 81.7039 101.301C82.041 101.979 82.2096 102.771 82.2096 103.676C82.2096 104.578 82.041 105.366 81.7039 106.04C81.3668 106.714 80.8933 107.239 80.2835 107.614C79.6736 107.989 78.9596 108.176 78.1414 108.176ZM78.1471 106.75C78.6774 106.75 79.1168 106.61 79.4653 106.33C79.8138 106.049 80.0713 105.676 80.238 105.21C80.4085 104.744 80.4937 104.231 80.4937 103.67C80.4937 103.114 80.4085 102.602 80.238 102.136C80.0713 101.667 79.8138 101.29 79.4653 101.006C79.1168 100.722 78.6774 100.58 78.1471 100.58C77.613 100.58 77.1698 100.722 76.8176 101.006C76.4691 101.29 76.2096 101.667 76.0392 102.136C75.8725 102.602 75.7892 103.114 75.7892 103.67C75.7892 104.231 75.8725 104.744 76.0392 105.21C76.2096 105.676 76.4691 106.049 76.8176 106.33C77.1698 106.61 77.613 106.75 78.1471 106.75ZM88.1798 99.2727V100.636H83.4127V99.2727H88.1798ZM84.6911 97.1818H86.39V105.438C86.39 105.767 86.4392 106.015 86.5377 106.182C86.6362 106.345 86.7631 106.456 86.9184 106.517C87.0775 106.574 87.2499 106.602 87.4355 106.602C87.5718 106.602 87.6911 106.593 87.7934 106.574C87.8957 106.555 87.9752 106.54 88.032 106.528L88.3389 107.932C88.2404 107.97 88.1002 108.008 87.9184 108.045C87.7366 108.087 87.5093 108.11 87.2366 108.114C86.7896 108.121 86.373 108.042 85.9866 107.875C85.6002 107.708 85.2877 107.451 85.0491 107.102C84.8105 106.754 84.6911 106.316 84.6911 105.79V97.1818Z" fill="black"/>
<path d="M68.6961 49.176C61.2891 59.043 45.4731 55.713 35.3301 56.19C35.3301 56.19 33.5331 56.292 31.7271 56.589C31.7271 56.589 32.4111 56.298 33.2841 55.995C40.4061 53.532 43.7721 53.037 48.1011 50.814C56.2311 46.65 64.3251 37.575 65.9721 28.149C62.8761 37.215 53.4621 45.018 44.8911 48.186C39.0261 50.352 28.4151 52.458 28.4121 52.458C28.2679 52.3842 28.1249 52.3082 27.9831 52.23C20.7681 48.72 20.5581 33.09 33.6651 28.053C39.4131 25.845 44.9061 27.057 51.1191 25.578C57.7431 24.003 65.4171 19.038 68.5341 12.546C72.0291 22.92 76.2291 39.144 68.6961 49.176ZM68.8221 9.33597C67.9841 11.3452 66.9117 13.2484 65.6271 15.006C62.8346 12.1279 59.4925 9.84002 55.7991 8.27803C52.1057 6.71605 48.1362 5.91179 44.1261 5.91297C27.5571 5.91297 14.0811 19.389 14.0811 35.955C14.0791 40.0872 14.9324 44.1752 16.5871 47.9617C18.2418 51.7482 20.6622 55.1513 23.6961 57.957L24.3561 58.539C23.875 58.0571 23.605 57.4039 23.6054 56.723C23.6058 56.0421 23.8766 55.3893 24.3583 54.908C24.84 54.4268 25.493 54.1565 26.1739 54.1566C26.8548 54.1568 27.5078 54.4273 27.9893 54.9088C28.4707 55.3902 28.7413 56.0432 28.7414 56.7241C28.7415 57.405 28.4713 58.0581 27.99 58.5397C27.5087 59.0214 26.8559 59.2922 26.175 59.2926C25.4941 59.293 24.8409 59.023 24.3591 58.542L24.8061 58.938C30.2073 63.5044 37.0532 66.0068 44.1261 66C59.9601 66 72.9651 53.676 74.0781 38.124C74.9001 30.507 72.6501 20.835 68.8221 9.33597Z" fill="black"/>
</svg>
