<svg width="68" height="112" viewBox="0 0 68 112" fill="none" xmlns="http://www.w3.org/2000/svg">
<path d="M6.55478 108V96.3636H8.31046V101.42H14.1116V96.3636H15.873V108H14.1116V102.926H8.31046V108H6.55478ZM17.8559 97.875V96.3636H26.8616V97.875H23.2309V108H21.4809V97.875H17.8559ZM28.8517 96.3636H30.9823L34.6869 105.409H34.8232L38.5278 96.3636H40.6585V108H38.988V99.5795H38.8801L35.4482 107.983H34.0619L30.6301 99.5739H30.5221V108H28.8517V96.3636ZM43.211 108V96.3636H44.9667V106.489H50.2394V108H43.211ZM55.9241 108.159C55.212 108.159 54.5718 108.023 54.0036 107.75C53.4392 107.473 52.9885 107.095 52.6514 106.614C52.3142 106.133 52.1343 105.583 52.1116 104.966H53.8161C53.8578 105.466 54.0794 105.877 54.4809 106.199C54.8824 106.521 55.3635 106.682 55.9241 106.682C56.3711 106.682 56.7669 106.58 57.1116 106.375C57.4601 106.167 57.7328 105.881 57.9298 105.517C58.1305 105.153 58.2309 104.739 58.2309 104.273C58.2309 103.799 58.1286 103.377 57.9241 103.006C57.7195 102.634 57.4374 102.343 57.0775 102.131C56.7214 101.919 56.3124 101.811 55.8502 101.807C55.498 101.807 55.1438 101.867 54.7877 101.989C54.4317 102.11 54.1438 102.269 53.9241 102.466L52.3161 102.227L52.9695 96.3636H59.3673V97.8693H54.4298L54.0605 101.125H54.1286C54.3559 100.905 54.657 100.722 55.032 100.574C55.4108 100.426 55.8161 100.352 56.248 100.352C56.9563 100.352 57.587 100.521 58.14 100.858C58.6968 101.195 59.1343 101.655 59.4525 102.239C59.7745 102.818 59.9336 103.485 59.9298 104.239C59.9336 104.992 59.7631 105.665 59.4184 106.256C59.0775 106.847 58.604 107.312 57.998 107.653C57.3957 107.991 56.7044 108.159 55.9241 108.159Z" fill="black"/>
<path d="M4.04248 5L9.41923 65.3L33.5476 72L57.7388 65.2916L63.1239 5H4.04667H4.04248ZM51.4199 24.7231H23.1207L23.7949 32.2983H50.7499L48.7189 55.0029L33.5476 59.2072L18.3972 55.0029L17.3629 43.3868H24.7874L25.315 49.2912L33.5518 51.5106L33.5685 51.5064L41.8095 49.2828L42.6638 39.6934H17.0321L15.0389 17.328H52.0857L51.424 24.7231H51.4199Z" fill="black"/>
</svg>
