<svg width="68" height="112" viewBox="0 0 68 112" fill="none" xmlns="http://www.w3.org/2000/svg">
<path d="M17.6251 108V96.3636H21.8865C22.7122 96.3636 23.3959 96.5 23.9376 96.7727C24.4793 97.0417 24.8846 97.4072 25.1535 97.8693C25.4224 98.3277 25.5569 98.8447 25.5569 99.4205C25.5569 99.9053 25.4679 100.314 25.2899 100.648C25.1118 100.977 24.8732 101.242 24.574 101.443C24.2785 101.64 23.9527 101.784 23.5967 101.875V101.989C23.983 102.008 24.3599 102.133 24.7274 102.364C25.0986 102.591 25.4054 102.915 25.6478 103.335C25.8902 103.756 26.0115 104.267 26.0115 104.869C26.0115 105.464 25.8713 105.998 25.591 106.472C25.3145 106.941 24.8865 107.314 24.3069 107.591C23.7274 107.864 22.9868 108 22.0853 108H17.6251ZM19.3808 106.494H21.9149C22.7558 106.494 23.358 106.331 23.7217 106.006C24.0853 105.68 24.2671 105.273 24.2671 104.784C24.2671 104.417 24.1743 104.08 23.9887 103.773C23.8031 103.466 23.538 103.222 23.1933 103.04C22.8524 102.858 22.4471 102.767 21.9774 102.767H19.3808V106.494ZM19.3808 101.398H21.733C22.127 101.398 22.4811 101.322 22.7955 101.17C23.1137 101.019 23.3656 100.807 23.5512 100.534C23.7406 100.258 23.8353 99.9318 23.8353 99.5568C23.8353 99.0758 23.6668 98.6723 23.3296 98.3466C22.9925 98.0208 22.4755 97.858 21.7785 97.858H19.3808V101.398ZM28.0938 108V96.3636H35.3893V97.875H29.8495V101.42H35.0086V102.926H29.8495V106.489H35.4575V108H28.0938ZM37.7345 96.3636H39.8651L43.5697 105.409H43.7061L47.4106 96.3636H49.5413V108H47.8708V99.5795H47.7629L44.3311 107.983H42.9447L39.5129 99.5739H39.4049V108H37.7345V96.3636Z" fill="black"/>
<g clip-path="url(#clip0_3569_1416)">
<path d="M0.0810547 10.3319H15.5111V15.8951H0.0810547V10.3319ZM0.0810547 0H15.5111V5.56321H0.0810547V0ZM27.765 20.5842H0.0810547V26.1474H26.7275C29.6449 26.1474 36.4522 26.2267 38.9808 31.2337V28.1343C37.749 23.2066 34.1185 20.5842 27.7647 20.5842H27.765ZM27.8294 30.9158H0.0810547V36.479H26.7275C33.2107 36.479 37.2953 36.7969 38.9808 37.9097V35.4458C37.684 31.5516 32.2383 30.9158 27.8297 30.9158H27.8294ZM27.765 57.1425H0.0810547V51.5793H26.7275C29.6449 51.5793 36.4522 51.4999 38.9808 46.4929V49.5923C37.749 54.52 34.1185 57.1425 27.7647 57.1425H27.765ZM27.8294 46.8109H0.0810547V41.2477H26.7275C33.2107 41.2477 37.2953 40.9297 38.9808 39.817V42.2808C37.684 46.175 32.2383 46.8109 27.8297 46.8109H27.8294ZM45.7234 66.7592H66.0811V63.3415H46.3068C44.5563 63.3415 40.4073 63.2622 38.9161 60.3215V62.2291C39.6292 65.1695 41.8335 66.7592 45.7234 66.7592ZM45.6587 60.4805H66.0163V57.0631H46.3068C42.352 57.0631 39.8883 56.9042 38.9159 56.189V57.699C39.6937 60.0832 43.0001 60.4805 45.6584 60.4805H45.6587Z" fill="black"/>
</g>
<defs>
<clipPath id="clip0_3569_1416">
<rect width="66" height="67" fill="white" transform="translate(0.0810547)"/>
</clipPath>
</defs>
</svg>
