<svg width="68" height="112" viewBox="0 0 68 112" fill="none" xmlns="http://www.w3.org/2000/svg">
<path d="M29.2345 100.04C29.1246 99.6951 28.9769 99.3864 28.7913 99.1136C28.6095 98.8371 28.3917 98.6023 28.1379 98.4091C27.8841 98.2121 27.5943 98.0625 27.2686 97.9602C26.9466 97.858 26.5924 97.8068 26.2061 97.8068C25.5508 97.8068 24.9598 97.9754 24.4333 98.3125C23.9068 98.6496 23.4901 99.1439 23.1833 99.7955C22.8803 100.443 22.7288 101.237 22.7288 102.176C22.7288 103.119 22.8822 103.917 23.189 104.568C23.4958 105.22 23.9163 105.714 24.4504 106.051C24.9845 106.388 25.5924 106.557 26.2742 106.557C26.9068 106.557 27.4579 106.428 27.9276 106.17C28.4011 105.913 28.7667 105.549 29.0242 105.08C29.2856 104.606 29.4163 104.049 29.4163 103.409L29.8708 103.494H26.5413V102.045H31.1151V103.369C31.1151 104.347 30.9068 105.195 30.4901 105.915C30.0773 106.631 29.5053 107.184 28.7742 107.574C28.047 107.964 27.2136 108.159 26.2742 108.159C25.2212 108.159 24.297 107.917 23.5015 107.432C22.7098 106.947 22.0924 106.259 21.6492 105.369C21.2061 104.475 20.9845 103.415 20.9845 102.188C20.9845 101.259 21.1133 100.426 21.3708 99.6875C21.6284 98.9489 21.9901 98.322 22.4561 97.8068C22.9258 97.2879 23.4769 96.892 24.1095 96.6193C24.7458 96.3428 25.4409 96.2045 26.1947 96.2045C26.8235 96.2045 27.4087 96.2973 27.9504 96.483C28.4958 96.6686 28.9807 96.9318 29.4049 97.2727C29.8329 97.6136 30.1871 98.0189 30.4674 98.4886C30.7477 98.9545 30.9371 99.4716 31.0356 100.04H29.2345ZM33.7544 108V99.2727H35.4532V108H33.7544ZM34.6123 97.9261C34.3169 97.9261 34.0631 97.8277 33.8509 97.6307C33.6426 97.4299 33.5384 97.1913 33.5384 96.9148C33.5384 96.6345 33.6426 96.3958 33.8509 96.1989C34.0631 95.9981 34.3169 95.8977 34.6123 95.8977C34.9078 95.8977 35.1597 95.9981 35.368 96.1989C35.5801 96.3958 35.6862 96.6345 35.6862 96.9148C35.6862 97.1913 35.5801 97.4299 35.368 97.6307C35.1597 97.8277 34.9078 97.9261 34.6123 97.9261ZM41.8126 99.2727V100.636H37.0455V99.2727H41.8126ZM38.324 97.1818H40.0228V105.438C40.0228 105.767 40.0721 106.015 40.1705 106.182C40.269 106.345 40.3959 106.456 40.5512 106.517C40.7103 106.574 40.8827 106.602 41.0683 106.602C41.2046 106.602 41.324 106.593 41.4262 106.574C41.5285 106.555 41.608 106.54 41.6649 106.528L41.9717 107.932C41.8732 107.97 41.733 108.008 41.5512 108.045C41.3694 108.087 41.1421 108.11 40.8694 108.114C40.4224 108.121 40.0058 108.042 39.6194 107.875C39.233 107.708 38.9205 107.451 38.6819 107.102C38.4433 106.754 38.324 106.316 38.324 105.79V97.1818Z" fill="black"/>
<g clip-path="url(#clip0_3569_1411)">
<path d="M65.8175 35.6867L36.5723 6.2703C35.7627 5.4569 34.665 5 33.5206 5C32.3762 5 31.2786 5.4569 30.469 6.2703L24.3881 12.3807L32.0931 20.1288C36.14 18.7542 39.9716 22.6508 38.5823 26.6979L46.0091 34.1663C51.1283 32.3916 55.1588 38.8284 51.3138 42.6919C47.3521 46.6757 40.8136 42.2603 42.9387 37.0763L36.0069 30.1147V48.4398C39.7906 50.3257 39.336 54.7337 37.3649 56.7113C36.4018 57.6792 35.096 58.2229 33.7345 58.2229C32.3729 58.2229 31.0671 57.6792 30.1041 56.7113C27.4764 54.0644 28.4485 49.6565 31.7865 48.2894V29.7914C28.6758 28.5116 28.1075 25.1684 28.9989 23.0238L21.403 15.3764L1.3449 35.5498C0.535665 36.3638 0.0810547 37.4676 0.0810547 38.6186C0.0810547 39.7695 0.535665 40.8734 1.3449 41.6873L30.5991 71.1037C31.4084 71.917 32.5058 72.3738 33.65 72.3738C34.7942 72.3738 35.8915 71.917 36.7009 71.1037L65.8175 41.8241C66.6267 41.0102 67.0813 39.9064 67.0813 38.7554C67.0813 37.6045 66.6267 36.5006 65.8175 35.6867Z" fill="black"/>
</g>
<defs>
<clipPath id="clip0_3569_1411">
<rect width="67" height="77" fill="white" transform="translate(0.0810547)"/>
</clipPath>
</defs>
</svg>
