<svg width="68" height="112" viewBox="0 0 68 112" fill="none" xmlns="http://www.w3.org/2000/svg">
<path d="M23.1883 100.148H21.4156C21.3474 99.7689 21.2205 99.4356 21.0349 99.1477C20.8493 98.8598 20.622 98.6155 20.3531 98.4148C20.0841 98.214 19.783 98.0625 19.4497 97.9602C19.1201 97.858 18.7697 97.8068 18.3985 97.8068C17.7281 97.8068 17.1277 97.9754 16.5974 98.3125C16.0709 98.6496 15.6542 99.1439 15.3474 99.7955C15.0444 100.447 14.8928 101.242 14.8928 102.182C14.8928 103.129 15.0444 103.928 15.3474 104.58C15.6542 105.231 16.0728 105.723 16.6031 106.057C17.1334 106.39 17.73 106.557 18.3928 106.557C18.7603 106.557 19.1088 106.508 19.4383 106.409C19.7716 106.307 20.0728 106.157 20.3417 105.96C20.6106 105.763 20.8379 105.523 21.0235 105.239C21.2129 104.951 21.3436 104.621 21.4156 104.25L23.1883 104.256C23.0936 104.828 22.9099 105.354 22.6372 105.835C22.3682 106.312 22.0216 106.725 21.5974 107.074C21.1769 107.419 20.6959 107.686 20.1542 107.875C19.6125 108.064 19.0216 108.159 18.3815 108.159C17.3739 108.159 16.4762 107.92 15.6883 107.443C14.9004 106.962 14.2792 106.275 13.8247 105.381C13.3739 104.487 13.1485 103.42 13.1485 102.182C13.1485 100.939 13.3758 99.8731 13.8303 98.983C14.2849 98.089 14.9061 97.4034 15.694 96.9261C16.4819 96.4451 17.3777 96.2045 18.3815 96.2045C18.9989 96.2045 19.5747 96.2936 20.1088 96.4716C20.6466 96.6458 21.1296 96.9034 21.5576 97.2443C21.9856 97.5814 22.3398 97.9943 22.6201 98.483C22.9004 98.9678 23.0898 99.5227 23.1883 100.148ZM31.6357 99.4205C31.5751 98.8826 31.3251 98.4659 30.8857 98.1705C30.4463 97.8712 29.8933 97.7216 29.2267 97.7216C28.7494 97.7216 28.3365 97.7973 27.988 97.9489C27.6395 98.0966 27.3687 98.3011 27.1755 98.5625C26.9861 98.8201 26.8914 99.1136 26.8914 99.4432C26.8914 99.7197 26.9558 99.9583 27.0846 100.159C27.2172 100.36 27.3895 100.528 27.6017 100.665C27.8176 100.797 28.0486 100.909 28.2948 101C28.541 101.087 28.7778 101.159 29.0051 101.216L30.1414 101.511C30.5126 101.602 30.8933 101.725 31.2835 101.881C31.6736 102.036 32.0354 102.241 32.3687 102.494C32.702 102.748 32.971 103.062 33.1755 103.438C33.3838 103.812 33.488 104.261 33.488 104.784C33.488 105.443 33.3176 106.028 32.9767 106.54C32.6395 107.051 32.149 107.455 31.5051 107.75C30.8649 108.045 30.0903 108.193 29.1812 108.193C28.31 108.193 27.5562 108.055 26.9198 107.778C26.2835 107.502 25.7854 107.11 25.4255 106.602C25.0657 106.091 24.8668 105.485 24.8289 104.784H26.5903C26.6244 105.205 26.7607 105.555 26.9994 105.835C27.2418 106.112 27.5505 106.318 27.9255 106.455C28.3043 106.587 28.7191 106.653 29.1698 106.653C29.666 106.653 30.1073 106.576 30.4937 106.42C30.8838 106.261 31.1907 106.042 31.4142 105.761C31.6376 105.477 31.7494 105.146 31.7494 104.767C31.7494 104.422 31.6509 104.14 31.4539 103.92C31.2607 103.701 30.9975 103.519 30.6642 103.375C30.3346 103.231 29.9615 103.104 29.5448 102.994L28.1698 102.619C27.238 102.366 26.4994 101.992 25.9539 101.5C25.4123 101.008 25.1414 100.356 25.1414 99.5455C25.1414 98.875 25.3232 98.2898 25.6869 97.7898C26.0505 97.2898 26.5429 96.9015 27.1642 96.625C27.7854 96.3447 28.4861 96.2045 29.2664 96.2045C30.0543 96.2045 30.7494 96.3428 31.3517 96.6193C31.9577 96.8958 32.435 97.2765 32.7835 97.7614C33.132 98.2424 33.3138 98.7955 33.3289 99.4205H31.6357ZM41.9326 99.4205C41.872 98.8826 41.622 98.4659 41.1826 98.1705C40.7432 97.8712 40.1902 97.7216 39.5235 97.7216C39.0463 97.7216 38.6334 97.7973 38.2849 97.9489C37.9364 98.0966 37.6656 98.3011 37.4724 98.5625C37.283 98.8201 37.1883 99.1136 37.1883 99.4432C37.1883 99.7197 37.2527 99.9583 37.3815 100.159C37.5141 100.36 37.6864 100.528 37.8985 100.665C38.1144 100.797 38.3455 100.909 38.5917 101C38.8379 101.087 39.0747 101.159 39.3019 101.216L40.4383 101.511C40.8095 101.602 41.1902 101.725 41.5803 101.881C41.9705 102.036 42.3322 102.241 42.6656 102.494C42.9989 102.748 43.2678 103.062 43.4724 103.438C43.6807 103.812 43.7849 104.261 43.7849 104.784C43.7849 105.443 43.6144 106.028 43.2735 106.54C42.9364 107.051 42.4459 107.455 41.8019 107.75C41.1618 108.045 40.3872 108.193 39.4781 108.193C38.6069 108.193 37.8531 108.055 37.2167 107.778C36.5803 107.502 36.0822 107.11 35.7224 106.602C35.3625 106.091 35.1637 105.485 35.1258 104.784H36.8872C36.9213 105.205 37.0576 105.555 37.2963 105.835C37.5387 106.112 37.8474 106.318 38.2224 106.455C38.6012 106.587 39.016 106.653 39.4667 106.653C39.9629 106.653 40.4042 106.576 40.7906 106.42C41.1807 106.261 41.4875 106.042 41.711 105.761C41.9345 105.477 42.0463 105.146 42.0463 104.767C42.0463 104.422 41.9478 104.14 41.7508 103.92C41.5576 103.701 41.2944 103.519 40.961 103.375C40.6315 103.231 40.2584 103.104 39.8417 102.994L38.4667 102.619C37.5349 102.366 36.7963 101.992 36.2508 101.5C35.7091 101.008 35.4383 100.356 35.4383 99.5455C35.4383 98.875 35.6201 98.2898 35.9838 97.7898C36.3474 97.2898 36.8398 96.9015 37.461 96.625C38.0822 96.3447 38.783 96.2045 39.5633 96.2045C40.3512 96.2045 41.0463 96.3428 41.6485 96.6193C42.2546 96.8958 42.7319 97.2765 43.0803 97.7614C43.4288 98.2424 43.6106 98.7955 43.6258 99.4205H41.9326ZM49.7749 108.159C48.9946 108.159 48.2977 108.025 47.684 107.756C47.0742 107.487 46.5912 107.114 46.2352 106.636C45.8829 106.155 45.6935 105.598 45.667 104.966H47.4511C47.4738 105.311 47.5893 105.61 47.7977 105.864C48.0098 106.114 48.2863 106.307 48.6272 106.443C48.9681 106.58 49.3469 106.648 49.7636 106.648C50.2219 106.648 50.6272 106.568 50.9795 106.409C51.3356 106.25 51.614 106.028 51.8147 105.744C52.0155 105.456 52.1159 105.125 52.1159 104.75C52.1159 104.36 52.0155 104.017 51.8147 103.722C51.6178 103.422 51.328 103.187 50.9454 103.017C50.5666 102.847 50.1083 102.761 49.5704 102.761H48.5874V101.33H49.5704C50.0022 101.33 50.381 101.252 50.7068 101.097C51.0363 100.941 51.2939 100.725 51.4795 100.449C51.6651 100.169 51.7579 99.8409 51.7579 99.4659C51.7579 99.1061 51.6765 98.7936 51.5136 98.5284C51.3545 98.2595 51.1272 98.0492 50.8318 97.8977C50.5401 97.7462 50.1954 97.6705 49.7977 97.6705C49.4189 97.6705 49.0647 97.7405 48.7352 97.8807C48.4094 98.017 48.1443 98.214 47.9397 98.4716C47.7352 98.7254 47.6253 99.0303 47.6102 99.3864H45.9113C45.9302 98.7576 46.1159 98.2045 46.4681 97.7273C46.8242 97.25 47.2939 96.8769 47.8772 96.608C48.4606 96.339 49.1083 96.2045 49.8204 96.2045C50.5666 96.2045 51.2106 96.3504 51.7522 96.642C52.2977 96.9299 52.7181 97.3144 53.0136 97.7955C53.3128 98.2765 53.4606 98.803 53.4568 99.375C53.4606 100.027 53.2787 100.58 52.9113 101.034C52.5477 101.489 52.0628 101.794 51.4568 101.949V102.04C52.2295 102.157 52.828 102.464 53.2522 102.96C53.6803 103.456 53.8924 104.072 53.8886 104.807C53.8924 105.447 53.7143 106.021 53.3545 106.528C52.9984 107.036 52.5117 107.436 51.8943 107.727C51.2768 108.015 50.5704 108.159 49.7749 108.159Z" fill="black"/>
<g clip-path="url(#clip0_3569_1413)">
<path d="M57.5681 64.8059L62.8516 5H4.08105L4.1501 5.77608L9.35629 64.8143L9.40048 65.3056L33.244 72H33.6196L57.5184 65.3L57.5626 64.8087L57.5681 64.8059ZM33.5174 18.0622H50.5943L50.0806 24.0922L33.233 31.6632L33.5147 33.0255H49.3238L47.5037 54.1054L33.4567 58.0417L19.4151 54.111L18.5313 44.0163H24.312L24.776 49.1335L24.8202 49.6304L33.3407 51.9195H33.708L42.1346 49.5522L42.176 49.0581L42.9714 39.6055L43.035 38.835H18.048L17.5232 32.7687L34.9481 25.2284L34.6719 23.8605H16.7748L16.2638 18.0538H33.4981L33.5174 18.0622Z" fill="black"/>
</g>
<defs>
<clipPath id="clip0_3569_1413">
<rect width="58" height="67" fill="white" transform="translate(4.08105 5)"/>
</clipPath>
</defs>
</svg>
