<svg width="81" height="112" viewBox="0 0 81 112" fill="none" xmlns="http://www.w3.org/2000/svg">
<path d="M5.94469 96.3636H7.69469V104.614C7.69469 105.36 7.54696 105.998 7.25151 106.528C6.95984 107.059 6.54886 107.464 6.01855 107.744C5.48825 108.021 4.86704 108.159 4.15492 108.159C3.49962 108.159 2.9106 108.04 2.38787 107.801C1.86893 107.562 1.45795 107.216 1.15492 106.761C0.855676 106.303 0.706055 105.746 0.706055 105.091H2.45037C2.45037 105.413 2.52424 105.691 2.67196 105.926C2.82348 106.161 3.02992 106.345 3.29128 106.477C3.55643 106.606 3.85946 106.67 4.20037 106.67C4.57159 106.67 4.88598 106.593 5.14355 106.438C5.40492 106.278 5.60378 106.045 5.74015 105.739C5.87651 105.432 5.94469 105.057 5.94469 104.614V96.3636ZM12.6535 108.193C12.1005 108.193 11.6005 108.091 11.1535 107.886C10.7065 107.678 10.3524 107.377 10.091 106.983C9.83342 106.589 9.70463 106.106 9.70463 105.534C9.70463 105.042 9.79933 104.636 9.98873 104.318C10.1781 104 10.4338 103.748 10.7558 103.562C11.0777 103.377 11.4376 103.237 11.8353 103.142C12.233 103.047 12.6383 102.975 13.0512 102.926C13.574 102.866 13.9982 102.816 14.324 102.778C14.6497 102.737 14.8865 102.67 15.0342 102.58C15.1819 102.489 15.2558 102.341 15.2558 102.136V102.097C15.2558 101.6 15.1156 101.216 14.8353 100.943C14.5588 100.67 14.1459 100.534 13.5967 100.534C13.0247 100.534 12.574 100.661 12.2444 100.915C11.9186 101.165 11.6933 101.443 11.5683 101.75L9.97168 101.386C10.1611 100.856 10.4376 100.428 10.8012 100.102C11.1686 99.7727 11.591 99.5341 12.0683 99.3864C12.5455 99.2348 13.0474 99.1591 13.574 99.1591C13.9224 99.1591 14.2918 99.2008 14.6819 99.2841C15.0758 99.3636 15.4433 99.5114 15.7842 99.7273C16.1289 99.9432 16.4111 100.252 16.6308 100.653C16.8505 101.051 16.9603 101.568 16.9603 102.205V108H15.3012V106.807H15.233C15.1232 107.027 14.9584 107.242 14.7387 107.455C14.519 107.667 14.2368 107.843 13.8921 107.983C13.5474 108.123 13.1346 108.193 12.6535 108.193ZM13.0228 106.83C13.4925 106.83 13.894 106.737 14.2274 106.551C14.5645 106.366 14.8202 106.123 14.9944 105.824C15.1724 105.521 15.2615 105.197 15.2615 104.852V103.727C15.2008 103.788 15.0834 103.845 14.9092 103.898C14.7387 103.947 14.5436 103.991 14.324 104.028C14.1043 104.062 13.8902 104.095 13.6819 104.125C13.4736 104.152 13.2993 104.174 13.1592 104.193C12.8296 104.235 12.5285 104.305 12.2558 104.403C11.9868 104.502 11.7709 104.644 11.608 104.83C11.449 105.011 11.3694 105.254 11.3694 105.557C11.3694 105.977 11.5247 106.295 11.8353 106.511C12.1459 106.723 12.5418 106.83 13.0228 106.83ZM26.3765 99.2727L23.2117 108H21.3936L18.2231 99.2727H20.047L22.2572 105.989H22.3481L24.5526 99.2727H26.3765ZM30.2629 108.193C29.7098 108.193 29.2098 108.091 28.7629 107.886C28.3159 107.678 27.9617 107.377 27.7004 106.983C27.4428 106.589 27.314 106.106 27.314 105.534C27.314 105.042 27.4087 104.636 27.5981 104.318C27.7875 104 28.0432 103.748 28.3651 103.562C28.6871 103.377 29.047 103.237 29.4447 103.142C29.8424 103.047 30.2477 102.975 30.6606 102.926C31.1833 102.866 31.6076 102.816 31.9333 102.778C32.2591 102.737 32.4958 102.67 32.6436 102.58C32.7913 102.489 32.8651 102.341 32.8651 102.136V102.097C32.8651 101.6 32.725 101.216 32.4447 100.943C32.1682 100.67 31.7553 100.534 31.2061 100.534C30.6341 100.534 30.1833 100.661 29.8538 100.915C29.528 101.165 29.3026 101.443 29.1776 101.75L27.5811 101.386C27.7704 100.856 28.047 100.428 28.4106 100.102C28.778 99.7727 29.2004 99.5341 29.6776 99.3864C30.1549 99.2348 30.6568 99.1591 31.1833 99.1591C31.5318 99.1591 31.9011 99.2008 32.2913 99.2841C32.6852 99.3636 33.0526 99.5114 33.3936 99.7273C33.7383 99.9432 34.0204 100.252 34.2401 100.653C34.4598 101.051 34.5697 101.568 34.5697 102.205V108H32.9106V106.807H32.8424C32.7326 107.027 32.5678 107.242 32.3481 107.455C32.1284 107.667 31.8462 107.843 31.5015 107.983C31.1568 108.123 30.7439 108.193 30.2629 108.193ZM30.6322 106.83C31.1019 106.83 31.5034 106.737 31.8367 106.551C32.1739 106.366 32.4295 106.123 32.6038 105.824C32.7818 105.521 32.8708 105.197 32.8708 104.852V103.727C32.8102 103.788 32.6928 103.845 32.5186 103.898C32.3481 103.947 32.153 103.991 31.9333 104.028C31.7136 104.062 31.4996 104.095 31.2913 104.125C31.0829 104.152 30.9087 104.174 30.7686 104.193C30.439 104.235 30.1379 104.305 29.8651 104.403C29.5962 104.502 29.3803 104.644 29.2174 104.83C29.0583 105.011 28.9788 105.254 28.9788 105.557C28.9788 105.977 29.1341 106.295 29.4447 106.511C29.7553 106.723 30.1511 106.83 30.6322 106.83ZM43.3154 99.4205C43.2548 98.8826 43.0048 98.4659 42.5654 98.1705C42.126 97.8712 41.573 97.7216 40.9063 97.7216C40.4291 97.7216 40.0162 97.7973 39.6677 97.9489C39.3192 98.0966 39.0484 98.3011 38.8552 98.5625C38.6658 98.8201 38.5711 99.1136 38.5711 99.4432C38.5711 99.7197 38.6355 99.9583 38.7643 100.159C38.8969 100.36 39.0692 100.528 39.2813 100.665C39.4972 100.797 39.7283 100.909 39.9745 101C40.2207 101.087 40.4575 101.159 40.6847 101.216L41.8211 101.511C42.1923 101.602 42.573 101.725 42.9632 101.881C43.3533 102.036 43.7151 102.241 44.0484 102.494C44.3817 102.748 44.6507 103.062 44.8552 103.438C45.0635 103.812 45.1677 104.261 45.1677 104.784C45.1677 105.443 44.9972 106.028 44.6563 106.54C44.3192 107.051 43.8287 107.455 43.1847 107.75C42.5446 108.045 41.77 108.193 40.8609 108.193C39.9897 108.193 39.2359 108.055 38.5995 107.778C37.9632 107.502 37.4651 107.11 37.1052 106.602C36.7454 106.091 36.5465 105.485 36.5086 104.784H38.27C38.3041 105.205 38.4404 105.555 38.6791 105.835C38.9215 106.112 39.2302 106.318 39.6052 106.455C39.984 106.587 40.3988 106.653 40.8495 106.653C41.3457 106.653 41.787 106.576 42.1734 106.42C42.5635 106.261 42.8704 106.042 43.0938 105.761C43.3173 105.477 43.4291 105.146 43.4291 104.767C43.4291 104.422 43.3306 104.14 43.1336 103.92C42.9404 103.701 42.6772 103.519 42.3438 103.375C42.0143 103.231 41.6412 103.104 41.2245 102.994L39.8495 102.619C38.9177 102.366 38.1791 101.992 37.6336 101.5C37.0919 101.008 36.8211 100.356 36.8211 99.5455C36.8211 98.875 37.0029 98.2898 37.3666 97.7898C37.7302 97.2898 38.2226 96.9015 38.8438 96.625C39.4651 96.3447 40.1658 96.2045 40.9461 96.2045C41.734 96.2045 42.4291 96.3428 43.0313 96.6193C43.6374 96.8958 44.1147 97.2765 44.4632 97.7614C44.8116 98.2424 44.9935 98.7955 45.0086 99.4205H43.3154ZM50.8055 108.176C49.9608 108.176 49.2335 107.985 48.6237 107.602C48.0176 107.216 47.5517 106.684 47.2259 106.006C46.9002 105.328 46.7373 104.551 46.7373 103.676C46.7373 102.79 46.904 102.008 47.2373 101.33C47.5706 100.648 48.0403 100.116 48.6464 99.733C49.2525 99.3504 49.9665 99.1591 50.7884 99.1591C51.4513 99.1591 52.0422 99.2822 52.5612 99.5284C53.0801 99.7708 53.4987 100.112 53.8169 100.551C54.1388 100.991 54.3301 101.504 54.3907 102.091H52.7373C52.6464 101.682 52.4381 101.33 52.1123 101.034C51.7903 100.739 51.3585 100.591 50.8169 100.591C50.3434 100.591 49.9286 100.716 49.5725 100.966C49.2203 101.212 48.9456 101.564 48.7487 102.023C48.5517 102.477 48.4532 103.015 48.4532 103.636C48.4532 104.273 48.5498 104.822 48.743 105.284C48.9362 105.746 49.2089 106.104 49.5612 106.358C49.9172 106.612 50.3358 106.739 50.8169 106.739C51.1388 106.739 51.4305 106.68 51.6919 106.562C51.957 106.441 52.1786 106.269 52.3566 106.045C52.5384 105.822 52.6653 105.553 52.7373 105.239H54.3907C54.3301 105.803 54.1464 106.307 53.8396 106.75C53.5328 107.193 53.1218 107.542 52.6066 107.795C52.0953 108.049 51.4949 108.176 50.8055 108.176ZM56.2075 108V99.2727H57.8495V100.659H57.9404C58.0995 100.189 58.3798 99.8201 58.7813 99.5511C59.1866 99.2784 59.645 99.142 60.1563 99.142C60.2624 99.142 60.3874 99.1458 60.5313 99.1534C60.6791 99.161 60.7946 99.1705 60.8779 99.1818V100.807C60.8097 100.788 60.6885 100.767 60.5143 100.744C60.3401 100.718 60.1658 100.705 59.9916 100.705C59.5901 100.705 59.2321 100.79 58.9177 100.96C58.6071 101.127 58.3609 101.36 58.1791 101.659C57.9972 101.955 57.9063 102.292 57.9063 102.67V108H56.2075ZM62.3481 108V99.2727H64.047V108H62.3481ZM63.2061 97.9261C62.9106 97.9261 62.6568 97.8277 62.4447 97.6307C62.2364 97.4299 62.1322 97.1913 62.1322 96.9148C62.1322 96.6345 62.2364 96.3958 62.4447 96.1989C62.6568 95.9981 62.9106 95.8977 63.2061 95.8977C63.5015 95.8977 63.7534 95.9981 63.9617 96.1989C64.1739 96.3958 64.2799 96.6345 64.2799 96.9148C64.2799 97.1913 64.1739 97.4299 63.9617 97.6307C63.7534 97.8277 63.5015 97.9261 63.2061 97.9261ZM66.3325 111.273V99.2727H67.9916V100.688H68.1336C68.2321 100.506 68.3741 100.295 68.5597 100.057C68.7454 99.8182 69.0029 99.6098 69.3325 99.4318C69.662 99.25 70.0976 99.1591 70.6393 99.1591C71.3438 99.1591 71.9726 99.3371 72.5257 99.6932C73.0787 100.049 73.5124 100.562 73.8268 101.233C74.145 101.903 74.3041 102.71 74.3041 103.653C74.3041 104.597 74.1469 105.405 73.8325 106.08C73.5181 106.75 73.0863 107.267 72.537 107.631C71.9878 107.991 71.3609 108.17 70.6563 108.17C70.126 108.17 69.6923 108.081 69.3552 107.903C69.0219 107.725 68.7605 107.517 68.5711 107.278C68.3817 107.04 68.2359 106.828 68.1336 106.642H68.0313V111.273H66.3325ZM67.9972 103.636C67.9972 104.25 68.0863 104.788 68.2643 105.25C68.4423 105.712 68.6999 106.074 69.037 106.335C69.3741 106.593 69.787 106.722 70.2757 106.722C70.7832 106.722 71.2075 106.587 71.5484 106.318C71.8893 106.045 72.1469 105.676 72.3211 105.21C72.4991 104.744 72.5882 104.22 72.5882 103.636C72.5882 103.061 72.501 102.544 72.3268 102.085C72.1563 101.627 71.8988 101.265 71.5541 101C71.2132 100.735 70.787 100.602 70.2757 100.602C69.7832 100.602 69.3666 100.729 69.0257 100.983C68.6885 101.237 68.4329 101.591 68.2586 102.045C68.0844 102.5 67.9972 103.03 67.9972 103.636ZM80.2813 99.2727V100.636H75.5143V99.2727H80.2813ZM76.7927 97.1818H78.4916V105.438C78.4916 105.767 78.5408 106.015 78.6393 106.182C78.7378 106.345 78.8647 106.456 79.02 106.517C79.1791 106.574 79.3514 106.602 79.537 106.602C79.6734 106.602 79.7927 106.593 79.895 106.574C79.9972 106.555 80.0768 106.54 80.1336 106.528L80.4404 107.932C80.3419 107.97 80.2018 108.008 80.02 108.045C79.8382 108.087 79.6109 108.11 79.3382 108.114C78.8912 108.121 78.4745 108.042 78.0882 107.875C77.7018 107.708 77.3893 107.451 77.1507 107.102C76.912 106.754 76.7927 106.316 76.7927 105.79V97.1818Z" fill="black"/>
<g clip-path="url(#clip0_3569_1414)">
<path d="M9.08105 5V68H72.0811V5H9.08105ZM43.3654 54.1344C43.3654 60.2656 39.7654 63.0641 34.5201 63.0641C29.7811 63.0641 27.0389 60.6172 25.6326 57.65L30.4561 54.7391C31.3842 56.3844 32.2279 57.7766 34.267 57.7766C36.2076 57.7766 37.4451 57.0172 37.4451 54.05V33.9266H43.3654V54.1344ZM57.3717 63.0641C51.8732 63.0641 48.3154 60.4484 46.5857 57.0172L51.4092 54.2328C52.6748 56.3 54.3342 57.8328 57.2451 57.8328C59.692 57.8328 61.267 56.6094 61.267 54.9078C61.267 52.8828 59.6639 52.1656 56.9498 50.9703L55.4732 50.3375C51.1982 48.5234 48.3717 46.2313 48.3717 41.4078C48.3717 36.9641 51.7607 33.5891 57.0342 33.5891C60.8029 33.5891 63.5029 34.8969 65.4436 38.3281L60.8311 41.2812C59.8186 39.4672 58.7217 38.75 57.0201 38.75C55.2904 38.75 54.1936 39.8469 54.1936 41.2812C54.1936 43.0531 55.2904 43.7703 57.8357 44.8813L59.3123 45.5141C64.3467 47.6656 67.1732 49.8734 67.1732 54.8234C67.1732 60.1391 62.9826 63.0641 57.3717 63.0641Z" fill="black"/>
</g>
<defs>
<clipPath id="clip0_3569_1414">
<rect width="63" height="72" fill="white" transform="translate(9.08105)"/>
</clipPath>
</defs>
</svg>
