<svg width="73" height="112" viewBox="0 0 73 112" fill="none" xmlns="http://www.w3.org/2000/svg">
<path d="M15.4923 108V96.3636H19.64C20.5415 96.3636 21.2896 96.5189 21.8843 96.8295C22.4828 97.1402 22.9298 97.5701 23.2252 98.1193C23.5207 98.6648 23.6684 99.2955 23.6684 100.011C23.6684 100.723 23.5188 101.35 23.2195 101.892C22.9241 102.43 22.4771 102.848 21.8786 103.148C21.2839 103.447 20.5358 103.597 19.6343 103.597H16.4923V102.085H19.4752C20.0434 102.085 20.5055 102.004 20.8616 101.841C21.2214 101.678 21.4847 101.441 21.6514 101.131C21.818 100.82 21.9014 100.447 21.9014 100.011C21.9014 99.572 21.8161 99.1913 21.6457 98.8693C21.479 98.5473 21.2158 98.3011 20.8559 98.1307C20.4999 97.9564 20.032 97.8693 19.4525 97.8693H17.248V108H15.4923ZM21.2366 102.75L24.1116 108H22.1116L19.2934 102.75H21.2366ZM29.3204 108.176C28.4606 108.176 27.72 107.992 27.0988 107.625C26.4814 107.254 26.0041 106.733 25.667 106.062C25.3337 105.388 25.167 104.598 25.167 103.693C25.167 102.799 25.3337 102.011 25.667 101.33C26.0041 100.648 26.4738 100.116 27.0761 99.733C27.6821 99.3504 28.3905 99.1591 29.2011 99.1591C29.6935 99.1591 30.1708 99.2405 30.6329 99.4034C31.095 99.5663 31.5098 99.822 31.8772 100.17C32.2446 100.519 32.5344 100.972 32.7465 101.528C32.9587 102.081 33.0647 102.754 33.0647 103.545V104.148H26.1272V102.875H31.3999C31.3999 102.428 31.309 102.032 31.1272 101.688C30.9454 101.339 30.6897 101.064 30.3602 100.864C30.0344 100.663 29.6518 100.562 29.2124 100.562C28.7352 100.562 28.3185 100.68 27.9624 100.915C27.6102 101.146 27.3374 101.449 27.1443 101.824C26.9549 102.195 26.8602 102.598 26.8602 103.034V104.028C26.8602 104.612 26.9624 105.108 27.167 105.517C27.3753 105.926 27.6651 106.239 28.0363 106.455C28.4075 106.667 28.8412 106.773 29.3374 106.773C29.6594 106.773 29.953 106.727 30.2181 106.636C30.4833 106.542 30.7124 106.402 30.9056 106.216C31.0988 106.03 31.2465 105.801 31.3488 105.528L32.9568 105.818C32.828 106.292 32.5969 106.706 32.2636 107.062C31.934 107.415 31.5193 107.689 31.0193 107.886C30.5231 108.08 29.9568 108.176 29.3204 108.176ZM37.4894 108.193C36.9364 108.193 36.4364 108.091 35.9894 107.886C35.5425 107.678 35.1883 107.377 34.9269 106.983C34.6694 106.589 34.5406 106.106 34.5406 105.534C34.5406 105.042 34.6353 104.636 34.8247 104.318C35.0141 104 35.2697 103.748 35.5917 103.562C35.9137 103.377 36.2735 103.237 36.6713 103.142C37.069 103.047 37.4743 102.975 37.8872 102.926C38.4099 102.866 38.8341 102.816 39.1599 102.778C39.4856 102.737 39.7224 102.67 39.8701 102.58C40.0178 102.489 40.0917 102.341 40.0917 102.136V102.097C40.0917 101.6 39.9516 101.216 39.6713 100.943C39.3947 100.67 38.9819 100.534 38.4326 100.534C37.8606 100.534 37.4099 100.661 37.0803 100.915C36.7546 101.165 36.5292 101.443 36.4042 101.75L34.8076 101.386C34.997 100.856 35.2735 100.428 35.6372 100.102C36.0046 99.7727 36.4269 99.5341 36.9042 99.3864C37.3815 99.2348 37.8834 99.1591 38.4099 99.1591C38.7584 99.1591 39.1277 99.2008 39.5178 99.2841C39.9118 99.3636 40.2792 99.5114 40.6201 99.7273C40.9648 99.9432 41.247 100.252 41.4667 100.653C41.6864 101.051 41.7963 101.568 41.7963 102.205V108H40.1372V106.807H40.069C39.9591 107.027 39.7944 107.242 39.5747 107.455C39.355 107.667 39.0728 107.843 38.7281 107.983C38.3834 108.123 37.9705 108.193 37.4894 108.193ZM37.8588 106.83C38.3285 106.83 38.73 106.737 39.0633 106.551C39.4004 106.366 39.6561 106.123 39.8303 105.824C40.0084 105.521 40.0974 105.197 40.0974 104.852V103.727C40.0368 103.788 39.9194 103.845 39.7451 103.898C39.5747 103.947 39.3796 103.991 39.1599 104.028C38.9402 104.062 38.7262 104.095 38.5178 104.125C38.3095 104.152 38.1353 104.174 37.9951 104.193C37.6656 104.235 37.3644 104.305 37.0917 104.403C36.8228 104.502 36.6069 104.644 36.444 104.83C36.2849 105.011 36.2053 105.254 36.2053 105.557C36.2053 105.977 36.3606 106.295 36.6713 106.511C36.9819 106.723 37.3777 106.83 37.8588 106.83ZM47.7352 108.176C46.8905 108.176 46.1632 107.985 45.5534 107.602C44.9473 107.216 44.4814 106.684 44.1556 106.006C43.8299 105.328 43.667 104.551 43.667 103.676C43.667 102.79 43.8337 102.008 44.167 101.33C44.5003 100.648 44.97 100.116 45.5761 99.733C46.1821 99.3504 46.8962 99.1591 47.7181 99.1591C48.381 99.1591 48.9719 99.2822 49.4909 99.5284C50.0098 99.7708 50.4284 100.112 50.7465 100.551C51.0685 100.991 51.2598 101.504 51.3204 102.091H49.667C49.5761 101.682 49.3677 101.33 49.042 101.034C48.72 100.739 48.2882 100.591 47.7465 100.591C47.2731 100.591 46.8583 100.716 46.5022 100.966C46.1499 101.212 45.8753 101.564 45.6784 102.023C45.4814 102.477 45.3829 103.015 45.3829 103.636C45.3829 104.273 45.4795 104.822 45.6727 105.284C45.8659 105.746 46.1386 106.104 46.4909 106.358C46.8469 106.612 47.2655 106.739 47.7465 106.739C48.0685 106.739 48.3602 106.68 48.6215 106.562C48.8867 106.441 49.1083 106.269 49.2863 106.045C49.4681 105.822 49.595 105.553 49.667 105.239H51.3204C51.2598 105.803 51.0761 106.307 50.7693 106.75C50.4624 107.193 50.0515 107.542 49.5363 107.795C49.0249 108.049 48.4246 108.176 47.7352 108.176ZM57.211 99.2727V100.636H52.444V99.2727H57.211ZM53.7224 97.1818H55.4213V105.438C55.4213 105.767 55.4705 106.015 55.569 106.182C55.6675 106.345 55.7944 106.456 55.9497 106.517C56.1088 106.574 56.2811 106.602 56.4667 106.602C56.6031 106.602 56.7224 106.593 56.8247 106.574C56.9269 106.555 57.0065 106.54 57.0633 106.528L57.3701 107.932C57.2716 107.97 57.1315 108.008 56.9497 108.045C56.7678 108.087 56.5406 108.11 56.2678 108.114C55.8209 108.121 55.4042 108.042 55.0178 107.875C54.6315 107.708 54.319 107.451 54.0803 107.102C53.8417 106.754 53.7224 106.316 53.7224 105.79V97.1818Z" fill="black"/>
<g clip-path="url(#clip0_3569_1417)">
<path d="M72.0811 35.067C72.0811 30.297 66.1081 25.776 56.9491 22.974C59.0641 13.641 58.1251 6.213 53.9851 3.834C52.9819 3.27216 51.8465 2.98936 50.6971 3.015V6.285C51.3721 6.285 51.9151 6.42 52.3711 6.669C54.3661 7.815 55.2331 12.171 54.5581 17.778C54.3961 19.158 54.1321 20.61 53.8081 22.092C50.741 21.3529 47.6281 20.8187 44.4901 20.493C42.6206 17.9139 40.5811 15.4624 38.3851 13.155C43.1701 8.709 47.6611 6.273 50.7151 6.273V3C46.6771 3 41.3941 5.877 36.0511 10.866C30.7111 5.91 25.4251 3.06 21.3901 3.06V6.33C24.4291 6.33 28.9351 8.754 33.7201 13.17C31.6651 15.33 29.6101 17.778 27.6571 20.493C24.5126 20.8151 21.3941 21.3544 18.3241 22.107C17.9996 20.7024 17.7443 19.2827 17.5591 17.853C16.8691 12.243 17.7211 7.887 19.7041 6.729C20.1421 6.465 20.7151 6.345 21.3901 6.345V3.075C20.1601 3.075 19.0411 3.339 18.0751 3.894C13.9501 6.273 13.0261 13.683 15.1531 22.989C6.02406 25.809 0.0810547 30.312 0.0810547 35.067C0.0810547 39.837 6.05406 44.358 15.2131 47.157C13.0981 56.493 14.0371 63.921 18.1771 66.297C19.1311 66.855 20.2471 67.119 21.4771 67.119C25.5151 67.119 30.7981 64.242 36.1411 59.253C41.4811 64.212 46.7641 67.059 50.8021 67.059C51.9604 67.0835 53.1044 66.7998 54.1171 66.237C58.2421 63.861 59.1661 56.451 57.0391 47.145C66.1381 44.343 72.0811 39.822 72.0811 35.067ZM52.9711 25.278C52.401 27.2396 51.7403 29.1736 50.9911 31.074C49.7645 28.6883 48.4178 26.3663 46.9561 24.117C49.0411 24.426 51.0511 24.807 52.9741 25.278H52.9711ZM46.2511 40.908C45.1522 42.8264 43.9722 44.6971 42.7141 46.515C38.3108 46.9031 33.8822 46.9081 29.4781 46.53C26.9519 42.9215 24.7427 39.1013 22.8751 35.112C24.7398 31.1133 26.9397 27.2796 29.4511 23.652C33.8532 23.2631 38.2808 23.2571 42.6841 23.634C43.9021 25.38 45.0931 27.246 46.2361 29.214C47.3521 31.134 48.3661 33.084 49.2901 35.052C48.3558 37.0439 47.342 38.9974 46.2511 40.908ZM50.9911 39C51.7831 40.965 52.4611 42.933 53.0161 44.841C51.0961 45.312 49.0681 45.708 46.9711 46.014C48.4268 43.7443 49.7684 41.4034 50.9911 39ZM36.1111 54.66C34.7461 53.25 33.3811 51.681 32.0311 49.962C33.3511 50.022 34.7011 50.067 36.0661 50.067C37.4461 50.067 38.8111 50.037 40.1461 49.962C38.8261 51.681 37.4611 53.25 36.1111 54.66ZM25.1911 46.014C23.1683 45.7209 21.1601 45.3345 19.1731 44.856C19.7161 42.963 20.3911 41.01 21.1531 39.06C21.7561 40.23 22.3891 41.406 23.0791 42.582C23.7691 43.755 24.4711 44.901 25.1911 46.014ZM36.0361 15.474C37.4011 16.884 38.7661 18.453 40.1161 20.172C38.7961 20.112 37.4461 20.067 36.0811 20.067C34.7011 20.067 33.3361 20.097 32.0011 20.172C33.3211 18.453 34.6861 16.884 36.0361 15.474ZM25.1761 24.12C23.7207 26.3848 22.379 28.7207 21.1561 31.119C20.3857 29.2064 19.7099 27.257 19.1311 25.278C21.0511 24.822 23.0791 24.426 25.1761 24.12ZM11.8951 42.492C6.69905 40.278 3.33905 37.371 3.33905 35.067C3.33905 32.763 6.69905 29.841 11.8951 27.642C13.1551 27.099 14.5351 26.613 15.9601 26.16C16.7971 29.034 17.8981 32.028 19.2601 35.097C17.9742 37.9836 16.8866 40.9544 16.0051 43.989C14.6114 43.5575 13.2398 43.0579 11.8951 42.492ZM19.7911 63.462C17.7961 62.322 16.9291 57.96 17.6041 52.356C17.7661 50.976 18.0301 49.521 18.3541 48.039C21.2281 48.744 24.3691 49.287 27.6721 49.641C29.5416 52.2201 31.5811 54.6715 33.7771 56.979C28.9921 61.425 24.5011 63.861 21.4471 63.861C20.8709 63.8673 20.3021 63.7313 19.7911 63.465V63.462ZM54.6031 52.281C55.2931 57.888 54.4411 62.247 52.4581 63.405C52.0201 63.669 51.4471 63.786 50.7721 63.786C47.7331 63.786 43.2271 61.365 38.4421 56.946C40.6288 54.6482 42.6546 52.2024 44.5051 49.626C47.6496 49.3039 50.768 48.7646 53.8381 48.012C54.1771 49.494 54.4381 50.916 54.6031 52.281ZM60.2521 42.492C58.9921 43.035 57.6121 43.521 56.1871 43.974C55.29 40.924 54.1875 37.9381 52.8871 35.037C54.2371 31.986 55.3201 29.007 56.1421 26.145C57.5401 26.578 58.9167 27.0775 60.2671 27.642C65.4631 29.856 68.8231 32.763 68.8231 35.067C68.8081 37.371 65.4481 40.293 60.2521 42.492Z" fill="black"/>
<path d="M36.0659 41.775C37.845 41.775 39.5512 41.0683 40.8092 39.8103C42.0672 38.5523 42.7739 36.8461 42.7739 35.067C42.7739 33.2879 42.0672 31.5817 40.8092 30.3237C39.5512 29.0657 37.845 28.359 36.0659 28.359C34.2868 28.359 32.5806 29.0657 31.3226 30.3237C30.0646 31.5817 29.3579 33.2879 29.3579 35.067C29.3579 36.8461 30.0646 38.5523 31.3226 39.8103C32.5806 41.0683 34.2868 41.775 36.0659 41.775Z" fill="black"/>
</g>
<defs>
<clipPath id="clip0_3569_1417">
<rect width="72" height="72" fill="white" transform="translate(0.0810547)"/>
</clipPath>
</defs>
</svg>
