<svg width="68" height="112" viewBox="0 0 68 112" fill="none" xmlns="http://www.w3.org/2000/svg">
<path d="M19.8779 99.4205C19.8173 98.8826 19.5673 98.4659 19.1279 98.1705C18.6885 97.8712 18.1355 97.7216 17.4688 97.7216C16.9916 97.7216 16.5787 97.7973 16.2302 97.9489C15.8817 98.0966 15.6109 98.3011 15.4177 98.5625C15.2283 98.8201 15.1336 99.1136 15.1336 99.4432C15.1336 99.7197 15.198 99.9583 15.3268 100.159C15.4594 100.36 15.6317 100.528 15.8438 100.665C16.0597 100.797 16.2908 100.909 16.537 101C16.7832 101.087 17.02 101.159 17.2472 101.216L18.3836 101.511C18.7548 101.602 19.1355 101.725 19.5257 101.881C19.9158 102.036 20.2776 102.241 20.6109 102.494C20.9442 102.748 21.2132 103.062 21.4177 103.438C21.626 103.812 21.7302 104.261 21.7302 104.784C21.7302 105.443 21.5597 106.028 21.2188 106.54C20.8817 107.051 20.3912 107.455 19.7472 107.75C19.1071 108.045 18.3325 108.193 17.4234 108.193C16.5522 108.193 15.7984 108.055 15.162 107.778C14.5257 107.502 14.0276 107.11 13.6677 106.602C13.3079 106.091 13.109 105.485 13.0711 104.784H14.8325C14.8666 105.205 15.0029 105.555 15.2416 105.835C15.484 106.112 15.7927 106.318 16.1677 106.455C16.5465 106.587 16.9613 106.653 17.412 106.653C17.9082 106.653 18.3495 106.576 18.7359 106.42C19.126 106.261 19.4329 106.042 19.6563 105.761C19.8798 105.477 19.9916 105.146 19.9916 104.767C19.9916 104.422 19.8931 104.14 19.6961 103.92C19.5029 103.701 19.2397 103.519 18.9063 103.375C18.5768 103.231 18.2037 103.104 17.787 102.994L16.412 102.619C15.4802 102.366 14.7416 101.992 14.1961 101.5C13.6544 101.008 13.3836 100.356 13.3836 99.5455C13.3836 98.875 13.5654 98.2898 13.9291 97.7898C14.2927 97.2898 14.7851 96.9015 15.4063 96.625C16.0276 96.3447 16.7283 96.2045 17.5086 96.2045C18.2965 96.2045 18.9916 96.3428 19.5938 96.6193C20.1999 96.8958 20.6772 97.2765 21.0257 97.7614C21.3741 98.2424 21.556 98.7955 21.5711 99.4205H19.8779ZM33.493 100.148H31.7203C31.6521 99.7689 31.5252 99.4356 31.3396 99.1477C31.154 98.8598 30.9267 98.6155 30.6578 98.4148C30.3888 98.214 30.0877 98.0625 29.7544 97.9602C29.4248 97.858 29.0744 97.8068 28.7032 97.8068C28.0328 97.8068 27.4324 97.9754 26.9021 98.3125C26.3756 98.6496 25.9589 99.1439 25.6521 99.7955C25.349 100.447 25.1975 101.242 25.1975 102.182C25.1975 103.129 25.349 103.928 25.6521 104.58C25.9589 105.231 26.3775 105.723 26.9078 106.057C27.4381 106.39 28.0347 106.557 28.6975 106.557C29.065 106.557 29.4134 106.508 29.743 106.409C30.0763 106.307 30.3775 106.157 30.6464 105.96C30.9153 105.763 31.1426 105.523 31.3282 105.239C31.5176 104.951 31.6483 104.621 31.7203 104.25L33.493 104.256C33.3983 104.828 33.2146 105.354 32.9419 105.835C32.6729 106.312 32.3263 106.725 31.9021 107.074C31.4816 107.419 31.0006 107.686 30.4589 107.875C29.9172 108.064 29.3263 108.159 28.6862 108.159C27.6786 108.159 26.7809 107.92 25.993 107.443C25.2051 106.962 24.5839 106.275 24.1294 105.381C23.6786 104.487 23.4532 103.42 23.4532 102.182C23.4532 100.939 23.6805 99.8731 24.135 98.983C24.5896 98.089 25.2108 97.4034 25.9987 96.9261C26.7865 96.4451 27.6824 96.2045 28.6862 96.2045C29.3036 96.2045 29.8794 96.2936 30.4134 96.4716C30.9513 96.6458 31.4343 96.9034 31.8623 97.2443C32.2903 97.5814 32.6445 97.9943 32.9248 98.483C33.2051 98.9678 33.3945 99.5227 33.493 100.148ZM41.9404 99.4205C41.8798 98.8826 41.6298 98.4659 41.1904 98.1705C40.751 97.8712 40.198 97.7216 39.5313 97.7216C39.0541 97.7216 38.6412 97.7973 38.2927 97.9489C37.9442 98.0966 37.6734 98.3011 37.4802 98.5625C37.2908 98.8201 37.1961 99.1136 37.1961 99.4432C37.1961 99.7197 37.2605 99.9583 37.3893 100.159C37.5219 100.36 37.6942 100.528 37.9063 100.665C38.1222 100.797 38.3533 100.909 38.5995 101C38.8457 101.087 39.0825 101.159 39.3097 101.216L40.4461 101.511C40.8173 101.602 41.198 101.725 41.5882 101.881C41.9783 102.036 42.3401 102.241 42.6734 102.494C43.0067 102.748 43.2757 103.062 43.4802 103.438C43.6885 103.812 43.7927 104.261 43.7927 104.784C43.7927 105.443 43.6222 106.028 43.2813 106.54C42.9442 107.051 42.4537 107.455 41.8097 107.75C41.1696 108.045 40.395 108.193 39.4859 108.193C38.6147 108.193 37.8609 108.055 37.2245 107.778C36.5882 107.502 36.0901 107.11 35.7302 106.602C35.3704 106.091 35.1715 105.485 35.1336 104.784H36.895C36.9291 105.205 37.0654 105.555 37.3041 105.835C37.5465 106.112 37.8552 106.318 38.2302 106.455C38.609 106.587 39.0238 106.653 39.4745 106.653C39.9707 106.653 40.412 106.576 40.7984 106.42C41.1885 106.261 41.4954 106.042 41.7188 105.761C41.9423 105.477 42.0541 105.146 42.0541 104.767C42.0541 104.422 41.9556 104.14 41.7586 103.92C41.5654 103.701 41.3022 103.519 40.9688 103.375C40.6393 103.231 40.2662 103.104 39.8495 102.994L38.4745 102.619C37.5427 102.366 36.8041 101.992 36.2586 101.5C35.7169 101.008 35.4461 100.356 35.4461 99.5455C35.4461 98.875 35.6279 98.2898 35.9916 97.7898C36.3552 97.2898 36.8476 96.9015 37.4688 96.625C38.0901 96.3447 38.7908 96.2045 39.5711 96.2045C40.359 96.2045 41.0541 96.3428 41.6563 96.6193C42.2624 96.8958 42.7397 97.2765 43.0882 97.7614C43.4366 98.2424 43.6185 98.7955 43.6336 99.4205H41.9404ZM52.2373 99.4205C52.1767 98.8826 51.9267 98.4659 51.4873 98.1705C51.0479 97.8712 50.4949 97.7216 49.8282 97.7216C49.3509 97.7216 48.9381 97.7973 48.5896 97.9489C48.2411 98.0966 47.9703 98.3011 47.7771 98.5625C47.5877 98.8201 47.493 99.1136 47.493 99.4432C47.493 99.7197 47.5574 99.9583 47.6862 100.159C47.8187 100.36 47.9911 100.528 48.2032 100.665C48.4191 100.797 48.6502 100.909 48.8964 101C49.1426 101.087 49.3794 101.159 49.6066 101.216L50.743 101.511C51.1142 101.602 51.4949 101.725 51.885 101.881C52.2752 102.036 52.6369 102.241 52.9703 102.494C53.3036 102.748 53.5725 103.062 53.7771 103.438C53.9854 103.812 54.0896 104.261 54.0896 104.784C54.0896 105.443 53.9191 106.028 53.5782 106.54C53.2411 107.051 52.7506 107.455 52.1066 107.75C51.4665 108.045 50.6919 108.193 49.7828 108.193C48.9115 108.193 48.1578 108.055 47.5214 107.778C46.885 107.502 46.3869 107.11 46.0271 106.602C45.6672 106.091 45.4684 105.485 45.4305 104.784H47.1919C47.2259 105.205 47.3623 105.555 47.6009 105.835C47.8434 106.112 48.1521 106.318 48.5271 106.455C48.9059 106.587 49.3206 106.653 49.7714 106.653C50.2676 106.653 50.7089 106.576 51.0953 106.42C51.4854 106.261 51.7922 106.042 52.0157 105.761C52.2392 105.477 52.3509 105.146 52.3509 104.767C52.3509 104.422 52.2525 104.14 52.0555 103.92C51.8623 103.701 51.599 103.519 51.2657 103.375C50.9362 103.231 50.5631 103.104 50.1464 102.994L48.7714 102.619C47.8396 102.366 47.1009 101.992 46.5555 101.5C46.0138 101.008 45.743 100.356 45.743 99.5455C45.743 98.875 45.9248 98.2898 46.2884 97.7898C46.6521 97.2898 47.1445 96.9015 47.7657 96.625C48.3869 96.3447 49.0877 96.2045 49.868 96.2045C50.6559 96.2045 51.3509 96.3428 51.9532 96.6193C52.5593 96.8958 53.0365 97.2765 53.385 97.7614C53.7335 98.2424 53.9153 98.7955 53.9305 99.4205H52.2373Z" fill="black"/>
<path d="M33.939 39.1531C32.9319 39.6159 31.8285 40.2189 29.6196 41.4311C28.7821 41.9022 27.9069 42.3733 27.0924 42.8172C27.0359 42.7607 26.9773 42.6895 26.9207 42.6309C22.5511 37.9618 14.4692 34.6641 14.8126 28.3934C14.9403 26.1091 15.7255 20.1126 30.3335 12.8305C42.3559 6.90521 51.9222 8.54671 53.5742 12.1877C55.9485 17.3781 48.4466 27.0366 36.0306 28.4373C34.6565 28.7161 33.2373 28.6824 31.8779 28.3388C30.5185 27.9953 29.2537 27.3506 28.177 26.4525C27.5195 25.7385 27.4211 25.6966 27.1783 25.839C26.7784 26.0484 27.0359 26.6953 27.1783 27.0659C27.6519 27.9234 28.2926 28.6772 29.0625 29.2828C29.8325 29.8885 30.7161 30.3335 31.661 30.5918C36.547 31.6479 41.6412 31.1433 46.2251 29.1492C53.75 26.2368 59.6251 18.1403 57.904 11.3523C56.1767 4.47018 44.7532 2.20055 33.9453 6.04049C27.1768 8.32141 20.9233 11.912 15.5412 16.6076C9.58658 22.177 8.6444 27.0178 9.02965 29.0445C10.4157 36.2407 20.3359 40.9245 24.314 44.3938C24.1046 44.509 23.9288 44.6032 23.7717 44.6932C21.7869 45.6794 14.2201 49.6345 12.3336 53.8178C10.1917 58.558 12.677 61.9562 14.3185 62.4126C16.7922 63.0052 19.3892 62.8104 21.7469 61.8554C24.1046 60.9005 26.1052 59.2331 27.4693 57.0861C28.6277 55.3057 29.3391 53.2719 29.5428 51.1577C29.7466 49.0434 29.4368 46.9112 28.6397 44.9424C29.11 44.5673 29.6115 44.2331 30.1388 43.9436C31.1522 43.3448 32.1174 42.7544 32.9738 42.298C35.9058 40.9246 39.1056 40.2174 42.3433 40.2272C49.1396 41.0271 50.4817 45.2669 50.2242 47.0529C50.1037 47.6865 49.8489 48.287 49.4769 48.8139C49.1049 49.3409 48.6244 49.782 48.0676 50.1076C47.5965 50.4071 47.4395 50.5076 47.4814 50.7211C47.5379 51.0352 47.7661 51.0205 48.166 50.964C49.1871 50.6413 50.0867 50.0172 50.7466 49.1738C51.4066 48.3304 51.7959 47.3071 51.8636 46.2384C52.073 42.0509 48.0802 37.4572 41.0117 37.4991C38.8951 37.5027 36.7998 37.9202 34.8435 38.7281C34.5294 38.8579 34.2244 38.9975 33.9285 39.1469L33.939 39.1531ZM23.8366 55.5661C21.5796 58.022 18.439 58.9496 17.0822 58.1644C15.6166 57.3269 16.1966 53.6942 18.9666 51.0959C20.6072 49.6177 22.3804 48.2938 24.2638 47.1408C24.5925 46.9314 25.0782 46.6551 25.6624 46.3033L25.8194 46.2175L26.1628 46.0081C26.6568 47.6645 26.7018 49.4224 26.293 51.1018C25.8843 52.7813 25.0366 54.3219 23.8366 55.5661Z" fill="black"/>
</svg>
